<svg xmlns="http://www.w3.org/2000/svg"  viewBox="0 0 100 100" width="100px" height="100px"><circle cx="50" cy="50" r="35" fill="#444445"/><path fill="#1f212b" d="M50,86c-19.851,0-36-16.149-36-36s16.149-36,36-36s36,16.149,36,36S69.851,86,50,86z M50,16 c-18.748,0-34,15.252-34,34s15.252,34,34,34s34-15.252,34-34S68.748,16,50,16z"/><circle cx="50" cy="50" r="31" fill="#fefdef"/><path fill="#444445" d="M51.752,45.944v24.96h-4.656V44.192L51.752,45.944z"/><path fill="#1f212b" d="M51.752,71.904h-4.656c-0.553,0-1-0.447-1-1V44.192c0-0.328,0.161-0.636,0.431-0.822 c0.271-0.188,0.615-0.229,0.922-0.113l4.656,1.752c0.39,0.146,0.647,0.52,0.647,0.936v24.96 C52.752,71.457,52.305,71.904,51.752,71.904z M48.096,69.904h2.656V46.637l-2.656-1V69.904z"/><path fill="#444445" d="M33.152,43.616c0-6.384,3.48-9.864,7.56-9.864s4.656,0.576,9.288,2.904s5.808,2.904,8.136,2.904 s3.48-1.752,3.48-5.232h4.056c0.576,6.96-3.48,9.864-7.56,9.864s-5.232-0.576-9.288-2.904s-5.232-2.904-7.56-2.904 s-3.48,1.752-4.056,5.808L33.152,43.616z"/><path fill="#1f212b" d="M37.208,45.192c-0.047,0-0.094-0.003-0.141-0.01l-4.056-0.576c-0.493-0.07-0.859-0.492-0.859-0.99 c0-7.465,4.438-10.864,8.56-10.864c3.835,0,4.857,0.522,8.248,2.255c0.447,0.229,0.939,0.479,1.489,0.756 c4.683,2.354,5.629,2.797,7.687,2.797c0.742,0,2.48,0,2.48-4.231c0-0.553,0.447-1,1-1h4.056c0.521,0,0.954,0.399,0.997,0.918 c0.364,4.405-1.063,6.962-2.322,8.332c-1.553,1.686-3.767,2.614-6.234,2.614c-4.317,0-5.592-0.63-9.786-3.037 c-4.038-2.317-5.008-2.771-7.063-2.771c-1.144,0-2.417,0.383-3.065,4.949c-0.037,0.263-0.178,0.5-0.39,0.659 C37.635,45.123,37.424,45.192,37.208,45.192z M41.264,37.384c2.641,0,4.038,0.729,8.059,3.037c3.984,2.287,4.961,2.771,8.79,2.771 c1.902,0,3.594-0.699,4.763-1.969c1.267-1.377,1.899-3.402,1.849-5.896h-2.141c-0.298,4.293-2.543,5.231-4.447,5.231 c-2.597,0-3.985-0.698-8.585-3.01c-0.554-0.278-1.05-0.532-1.501-0.763c-3.298-1.685-3.984-2.035-7.338-2.035 c-3.706,0-6.264,3.179-6.535,8l2.198,0.313C36.906,40.114,38.013,37.384,41.264,37.384z"/><path fill="#1f212b" d="M31.655,25.508c-0.153,0-0.305-0.07-0.403-0.204c-0.163-0.223-0.115-0.535,0.107-0.699 c3.037-2.232,6.407-3.884,10.017-4.909c0.268-0.073,0.543,0.08,0.618,0.345c0.075,0.266-0.079,0.542-0.345,0.618 c-3.494,0.991-6.757,2.591-9.698,4.753C31.862,25.477,31.759,25.508,31.655,25.508z"/><g><path fill="#1f212b" d="M50,81.5c-17.369,0-31.5-14.131-31.5-31.5c0-8.298,3.2-16.131,9.01-22.056 c0.194-0.197,0.511-0.199,0.707-0.008c0.197,0.193,0.201,0.511,0.008,0.707C22.599,34.381,19.5,41.966,19.5,50 c0,16.817,13.683,30.5,30.5,30.5c0.994,0,2-0.049,2.988-0.145c0.26-0.014,0.52,0.175,0.546,0.45 c0.026,0.274-0.175,0.519-0.45,0.546C52.063,81.45,51.026,81.5,50,81.5z"/></g><g><path fill="#1f212b" d="M57.155,80.67c-0.228,0-0.433-0.155-0.486-0.385c-0.063-0.27,0.103-0.538,0.371-0.602 c0.746-0.176,1.491-0.383,2.217-0.613c0.261-0.081,0.545,0.062,0.628,0.325c0.084,0.263-0.062,0.544-0.325,0.628 c-0.749,0.238-1.52,0.451-2.289,0.633C57.231,80.666,57.192,80.67,57.155,80.67z"/></g><g><path fill="#1f212b" d="M64.282,78.021c-0.18,0-0.354-0.098-0.443-0.27c-0.128-0.245-0.032-0.547,0.213-0.674 C74.197,71.802,80.5,61.426,80.5,50c0-16.817-13.683-30.5-30.5-30.5c-0.276,0-0.5-0.224-0.5-0.5s0.224-0.5,0.5-0.5 c17.369,0,31.5,14.131,31.5,31.5c0,11.801-6.509,22.516-16.987,27.965C64.439,78.003,64.36,78.021,64.282,78.021z"/></g></svg>